<mxfile host="65bd71144e">
    <diagram name="Page-1" id="MhTt_mG-Fe5Okql0z6RM">
        <mxGraphModel dx="1074" dy="1948" grid="1" gridSize="10" guides="1" tooltips="1" connect="1" arrows="1" fold="1" page="1" pageScale="1" pageWidth="827" pageHeight="1169" math="0" shadow="0">
            <root>
                <mxCell id="0"/>
                <mxCell id="1" parent="0"/>
                <mxCell id="FIRBAUT9jdTkFYHDoS8M-1" value="Rectangle&amp;nbsp;" style="swimlane;fontStyle=1;align=center;verticalAlign=top;childLayout=stackLayout;horizontal=1;startSize=26;horizontalStack=0;resizeParent=1;resizeParentMax=0;resizeLast=0;collapsible=1;marginBottom=0;whiteSpace=wrap;html=1;" parent="1" vertex="1">
                    <mxGeometry x="120" y="-200" width="160" height="120" as="geometry"/>
                </mxCell>
                <mxCell id="FIRBAUT9jdTkFYHDoS8M-2" value="+ base: float&lt;br&gt;+ height: float&lt;div&gt;&lt;div&gt;&lt;br&gt;&lt;/div&gt;&lt;/div&gt;" style="text;strokeColor=none;fillColor=none;align=left;verticalAlign=top;spacingLeft=4;spacingRight=4;overflow=hidden;rotatable=0;points=[[0,0.5],[1,0.5]];portConstraint=eastwest;whiteSpace=wrap;html=1;" parent="FIRBAUT9jdTkFYHDoS8M-1" vertex="1">
                    <mxGeometry y="26" width="160" height="44" as="geometry"/>
                </mxCell>
                <mxCell id="FIRBAUT9jdTkFYHDoS8M-3" value="" style="line;strokeWidth=1;fillColor=none;align=left;verticalAlign=middle;spacingTop=-1;spacingLeft=3;spacingRight=3;rotatable=0;labelPosition=right;points=[];portConstraint=eastwest;strokeColor=inherit;" parent="FIRBAUT9jdTkFYHDoS8M-1" vertex="1">
                    <mxGeometry y="70" width="160" height="8" as="geometry"/>
                </mxCell>
                <mxCell id="FIRBAUT9jdTkFYHDoS8M-4" value="+ area(): float&lt;div&gt;+ perimeter(): float&lt;/div&gt;" style="text;strokeColor=none;fillColor=none;align=left;verticalAlign=top;spacingLeft=4;spacingRight=4;overflow=hidden;rotatable=0;points=[[0,0.5],[1,0.5]];portConstraint=eastwest;whiteSpace=wrap;html=1;" parent="FIRBAUT9jdTkFYHDoS8M-1" vertex="1">
                    <mxGeometry y="78" width="160" height="42" as="geometry"/>
                </mxCell>
                <mxCell id="FIRBAUT9jdTkFYHDoS8M-5" value="" style="verticalLabelPosition=bottom;verticalAlign=top;html=1;shape=mxgraph.basic.patternFillRect;fillStyle=diag;step=5;fillStrokeWidth=0.2;fillStrokeColor=#dddddd;" parent="1" vertex="1">
                    <mxGeometry x="120" y="80" width="40" height="80" as="geometry"/>
                </mxCell>
                <mxCell id="FIRBAUT9jdTkFYHDoS8M-6" value="" style="verticalLabelPosition=bottom;verticalAlign=top;html=1;shape=mxgraph.basic.patternFillRect;fillStyle=diag;step=5;fillStrokeWidth=0.2;fillStrokeColor=#dddddd;" parent="1" vertex="1">
                    <mxGeometry x="200" width="120" height="160" as="geometry"/>
                </mxCell>
                <mxCell id="FIRBAUT9jdTkFYHDoS8M-7" value="" style="verticalLabelPosition=bottom;verticalAlign=top;html=1;shape=mxgraph.basic.patternFillRect;fillStyle=diag;step=5;fillStrokeWidth=0.2;fillStrokeColor=#dddddd;" parent="1" vertex="1">
                    <mxGeometry x="360" y="-80" width="200" height="240" as="geometry"/>
                </mxCell>
                <mxCell id="FIRBAUT9jdTkFYHDoS8M-8" value="1" style="text;html=1;align=center;verticalAlign=middle;whiteSpace=wrap;rounded=0;" parent="1" vertex="1">
                    <mxGeometry x="110" y="160" width="60" height="30" as="geometry"/>
                </mxCell>
                <mxCell id="FIRBAUT9jdTkFYHDoS8M-9" value="2" style="text;html=1;align=center;verticalAlign=middle;whiteSpace=wrap;rounded=0;" parent="1" vertex="1">
                    <mxGeometry x="80" y="105" width="60" height="30" as="geometry"/>
                </mxCell>
                <mxCell id="FIRBAUT9jdTkFYHDoS8M-12" value="3" style="text;html=1;align=center;verticalAlign=middle;whiteSpace=wrap;rounded=0;" parent="1" vertex="1">
                    <mxGeometry x="230" y="160" width="60" height="30" as="geometry"/>
                </mxCell>
                <mxCell id="FIRBAUT9jdTkFYHDoS8M-13" value="4" style="text;html=1;align=center;verticalAlign=middle;whiteSpace=wrap;rounded=0;" parent="1" vertex="1">
                    <mxGeometry x="160" y="65" width="60" height="30" as="geometry"/>
                </mxCell>
                <mxCell id="FIRBAUT9jdTkFYHDoS8M-14" value="6" style="text;html=1;align=center;verticalAlign=middle;whiteSpace=wrap;rounded=0;" parent="1" vertex="1">
                    <mxGeometry x="320" y="25" width="60" height="30" as="geometry"/>
                </mxCell>
                <mxCell id="FIRBAUT9jdTkFYHDoS8M-17" value="5" style="text;html=1;align=center;verticalAlign=middle;whiteSpace=wrap;rounded=0;" parent="1" vertex="1">
                    <mxGeometry x="430" y="160" width="60" height="30" as="geometry"/>
                </mxCell>
            </root>
        </mxGraphModel>
    </diagram>
</mxfile>